<svg width="33" height="34" viewBox="0 0 33 34" fill="none" xmlns="http://www.w3.org/2000/svg">
<g clip-path="url(#clip0_1_1795)">
<path d="M25.1434 9.22595C25.1434 4.45173 21.2738 0.582123 16.4989 0.582123C11.724 0.582123 7.8551 4.45173 7.8551 9.22595C7.8551 16.0661 16.4989 26.1879 16.4989 26.1879C16.4989 26.1879 25.1434 16.0309 25.1434 9.22595ZM12.236 8.70982C12.236 6.35479 14.1453 4.44621 16.4996 4.44621C18.854 4.44621 20.7632 6.35479 20.7632 8.70982C20.7632 11.0648 18.854 12.9734 16.4996 12.9734C14.1453 12.9734 12.236 11.0648 12.236 8.70982Z" fill="#37373F"/>
<path d="M16.499 10.8061C17.6567 10.8061 18.5952 9.86756 18.5952 8.70982C18.5952 7.55209 17.6567 6.61356 16.499 6.61356C15.3412 6.61356 14.4027 7.55209 14.4027 8.70982C14.4027 9.86756 15.3412 10.8061 16.499 10.8061Z" fill="#C94042"/>
<path d="M21.3863 23.1808C20.6818 24.1993 20.0208 25.086 19.4702 25.7981C24.9323 26.1265 28.5121 27.3058 29.8439 28.1828C28.2837 29.2116 23.6482 30.6579 16.5003 30.6579C9.35316 30.6579 4.71695 29.2109 3.15682 28.1828C4.48855 27.3058 8.06559 26.1272 13.5222 25.7988C12.9702 25.0867 12.3085 24.2007 11.6033 23.1822C4.88186 23.844 0 25.8326 0 28.1821C0 31.0732 7.388 33.4179 16.5003 33.4179C25.6134 33.4179 33 31.0746 33 28.1821C33.0014 25.8312 28.114 23.8419 21.3863 23.1808Z" fill="#37373F"/>
</g>
<defs>
<clipPath id="clip0_1_1795">
<rect width="33" height="33" fill="white" transform="translate(0 0.5)"/>
</clipPath>
</defs>
</svg>
