<svg width="129" height="24" viewBox="0 0 129 24" fill="none" xmlns="http://www.w3.org/2000/svg">
<path d="M0.495972 0.651978V23.5H3.53597V13.036H15.568V23.5H18.608V0.651978H15.568V10.476H3.53597V0.651978H0.495972ZM23.5898 0.651978V23.5H39.4618V20.94H26.6298V13.036H38.5018V10.476H26.6298V3.21198H39.3658V0.651978H23.5898ZM43.1523 0.651978V23.5H58.2882V20.94H46.1923V0.651978H43.1523ZM66.811 14.156L75.547 0.651978H72.091L65.403 11.532L58.555 0.651978H54.939L63.771 14.156V23.5H66.811V14.156ZM78.121 0.651978V23.5H81.161V13.036H91.657V10.476H81.161V3.21198H93.129V0.651978H78.121ZM96.496 0.651978V23.5H111.632V20.94H99.536V0.651978H96.496ZM120.155 14.156L128.891 0.651978H125.435L118.747 11.532L111.899 0.651978H108.283L117.115 14.156V23.5H120.155V14.156Z" fill="black"/>
</svg>
